<svg width="248" height="330" viewBox="0 0 248 330" fill="none" xmlns="http://www.w3.org/2000/svg">
<path d="M139.471 52.5132C139.217 51.9808 138.952 51.4694 138.699 50.9377C137.869 40.2403 135.332 29.5013 127.502 21.6751C119.974 14.1402 109.553 10.6013 99.672 7.27868C98.7921 6.97789 98.4157 8.17833 98.9179 8.72097C105.413 15.9677 106.831 26.7597 113.202 34.4478C115.56 37.2931 118.254 39.8751 121.328 41.9368C126.371 45.3223 133.778 46.378 136.472 52.3675C136.71 52.9047 137.353 52.9486 137.711 52.6966C137.809 52.8409 137.96 52.9332 138.107 52.9572C148.112 76.2311 154.582 101.222 152.251 126.45C151.703 112.239 151.388 97.4331 145.993 84.3727C143.403 78.1049 139.778 72.2675 135.278 67.2088C128.809 59.936 120.617 54.5831 115.126 46.41C114.576 45.6033 113.461 46.0575 113.407 46.9479C112.459 62.9704 112.137 79.427 122.002 92.977C132.601 107.538 151.679 118.311 150.304 138.661C150.301 138.767 150.331 138.862 150.388 138.932C146.279 158.198 138.291 177.803 128.076 195.483C136.611 173.436 135.398 148.495 125.932 126.835C125.462 125.776 123.871 126.222 124.182 127.382C127.205 138.948 118.343 147.766 114.855 158.013C113.248 162.709 112.379 167.752 111.947 172.797C111.39 162.242 109.358 151.781 105.746 141.85C100.884 128.483 92.946 116.567 86.5891 103.895C86.0439 102.825 84.2141 103.676 84.6678 104.793C90.6386 119.247 76.9012 130.077 71.8532 142.263C68.2797 150.895 68.2151 160.297 69.665 169.403C73.4754 193.321 83.7169 216.958 91.4234 239.867C74.2261 254.384 54.4864 266.639 37.1712 280.948C47.2948 268.73 52.2182 252.46 51.5008 236.644C50.4168 212.729 33.5256 195.54 25.2583 174.134C24.8356 173.061 23.2439 173.279 23.2319 174.471C23.1826 186.16 17.931 196.241 14.7091 207.227C12.1406 215.998 11.1467 225.168 11.5518 234.285C12.3736 253.284 18.994 271.659 28.9324 287.736C28.9942 287.822 29.0615 287.87 29.119 287.94C17.0654 299.014 6.74067 311.539 0.144383 327.266C-0.463056 328.732 1.66741 329.901 2.35989 328.426C15.4956 300.588 39.5178 282.416 63.9344 264.89C65.3886 263.84 66.8115 262.802 68.2493 261.757C68.4573 261.92 68.732 262.183 69.17 262.746C71.9317 266.268 76.1054 268.719 78.9308 272.501C82.9035 277.829 86.1012 283.696 90.2612 288.895C97.21 297.591 106.27 304.717 116.654 308.809C141.945 318.775 166.309 300.968 191.434 307.998C192.603 308.33 193.361 306.731 192.505 305.95C172.767 287.87 170.294 255.827 144.339 243.797C124.431 234.559 103.483 239.206 85.1001 248.869C95.228 240.635 104.707 231.834 113.096 221.784C113.275 221.85 113.485 221.854 113.714 221.747C128.433 215.397 142.427 215.669 157.888 218.73C168.394 220.809 178.687 222.431 188.982 218.477C199.741 214.326 209.498 206.522 217.912 198.788C227.846 189.652 235.438 177.947 247.368 171.175C248.232 170.695 248.008 169.14 246.987 169.005C223.269 165.799 195.742 158.909 171.94 164.379C155.868 168.076 142.06 177.899 133.163 191.411C139.675 179.38 145.375 166.484 149.312 153.317C149.408 153.235 149.505 153.152 149.602 153.069C149.809 153.284 150.226 153.277 150.317 152.898C150.362 152.709 150.409 152.52 150.454 152.331C159.216 144.646 167.535 139.231 179.016 135.657C187.166 133.109 194.614 130.272 201.407 124.95C213.306 115.619 220.831 101.908 222.766 86.9749C222.895 85.9378 221.617 85.4286 221.047 86.3416C210.007 103.896 187.57 104.063 171.139 113.763C161.607 119.382 156.374 127.903 153.146 137.528C153.664 134.657 154.113 131.791 154.408 128.938C155.842 115.698 154.909 102.378 152.101 89.4345C152.321 89.2958 152.534 89.1414 152.753 89.0035C152.914 89.1277 153.178 89.1326 153.266 88.9128C153.305 88.8132 153.355 88.6929 153.389 88.5769C183.8 68.3723 175.366 25.8746 157.122 0.337236C156.598 -0.389801 155.448 0.126624 155.691 1.01231C159.925 16.3401 152.724 30.8593 151.108 45.9732C149.645 59.6231 156.33 73.399 151.515 86.6652C151.493 86.7061 151.508 86.754 151.507 86.8069C148.695 74.9651 144.362 63.4594 138.836 52.6598C138.848 52.5861 138.875 52.507 138.866 52.4226C138.859 52.2328 138.841 52.0634 138.818 51.8783C138.971 52.1448 139.146 52.4227 139.299 52.6892C139.317 52.8053 139.536 52.6671 139.471 52.5132ZM102.079 10.0031C102.268 10.1019 102.582 10.2134 103.156 10.2608C107.769 10.7056 113.967 14.3231 117.975 16.6874C129.937 23.7619 134.529 34.6452 136.773 47.2936C128.509 32.2121 116.283 19.715 102.068 10.0241C102.095 9.99827 102.079 10.0031 102.079 10.0031ZM124.404 41.8831C113.39 35.6645 109.352 25.0981 104.437 14.246C104.306 13.9376 103.805 13.0632 103.284 12.1782C117.344 21.9344 128.214 34.4538 137.088 49.0295C137.173 49.5799 137.274 50.1247 137.342 50.6798C134.794 45.6585 129.248 44.632 124.404 41.8831ZM125.526 60.3342C130.704 64.9876 135.626 69.774 139.441 75.6581C147.5 88.0772 149.075 101.826 150.083 116.224C150.147 117.043 150.254 119.788 150.462 122.745C149.622 119.723 148.797 117.028 148.702 116.726C140.745 93.1261 124.845 73.1286 115.586 50.058C117.353 51.462 124.489 59.4179 125.526 60.3342ZM121.221 88.4157C117.067 81.5019 115.436 73.6074 114.952 65.6333C114.842 63.8853 114.175 53.2597 114.828 50.4873C124.345 77.007 144.135 99.1601 150.085 126.847C145.36 111.795 129.427 102.082 121.221 88.4157ZM13.611 228.521C13.9308 211.943 22.483 197.387 24.7308 181.499C32.6331 215.985 33.1801 250.028 29.8827 285.133C19.8717 267.871 13.2087 248.69 13.611 228.521ZM31.1895 286.069C31.0289 286.224 30.8468 286.369 30.6854 286.524C30.6136 286.407 30.5418 286.289 30.4864 286.167C36.9859 251.86 34.3842 215.437 26.3011 181.602C34.3372 198.135 46.6008 212.874 49.0378 231.561C51.6625 251.743 44.3762 270.797 31.2715 285.939C31.2078 285.959 31.2065 286.012 31.1895 286.069ZM123.646 308.649C110.287 305.156 98.8596 296.499 90.6456 285.542C87.1763 280.931 84.3649 275.852 80.9113 271.235C79.8874 269.861 73.7735 263.385 70.5367 260.745C70.5367 260.745 70.5525 260.741 70.5474 260.725C70.6286 260.594 70.7056 260.448 70.7868 260.318C70.868 260.187 70.8984 260.003 70.8958 259.829C71.5223 259.372 72.1379 258.882 72.7636 258.424C94.8577 259.622 115.844 266.269 135.753 275.733C153.467 284.155 169.571 295.194 186.692 304.57C165.56 301.534 144.868 314.209 123.646 308.649ZM152.044 251.278C168.967 264.769 173.097 287.976 187.191 303.873C155.129 280.193 115.355 259.677 75.2513 256.545C76.2833 255.768 77.3205 255.007 78.3332 254.218C101.073 241.725 129.949 233.654 152.044 251.278ZM121.81 147.958C124.311 143.104 126.322 138.472 126.585 133.446C126.66 133.631 126.705 133.828 126.785 134.03C130.563 169.857 118.098 201.347 98.9673 231.025C106.055 218.377 110.157 204.005 111.54 189.542C113.119 185.256 113.969 180.657 113.964 176.115C113.966 176.01 113.935 175.914 113.911 175.834C115.192 165.964 116.961 157.372 121.81 147.958ZM80.6007 200.179C76.7464 188.471 72.2433 176.53 71.166 164.145C69.9608 150.403 74.722 140.876 81.8376 129.6C84.2666 125.747 86.3668 121.735 87.4463 117.588C90.107 136.432 92.1766 155.285 93.0093 174.316C93.9315 195.031 93.0414 215.597 92.3813 236.283C88.4868 224.221 84.5651 212.184 80.6007 200.179ZM93.0263 238.177C97.9199 197.225 95.2415 153.855 88.166 113.239C88.1957 112.776 88.2367 112.291 88.2448 111.817C98.7428 132.141 109.065 150.842 110.06 174.75C111 197.591 104.397 218.72 93.0366 238.21C93.0366 238.21 93.0315 238.193 93.0263 238.177ZM101.36 230.853C118.421 204.724 132.481 173.085 129.113 141.585C134.139 160.841 132.595 180.824 125.49 199.84C122.068 205.436 118.454 210.812 114.657 215.878C110.638 221.242 106.157 226.19 101.36 230.853ZM241.992 170.69C242.434 170.761 242.871 170.817 243.312 170.888C234.928 176.481 228.793 184.358 221.79 191.634C212.071 201.733 199.125 213.138 185.377 217.228C172.668 221.01 159.982 216.153 147.363 214.631C136.342 213.307 125.726 214.845 115.498 218.847C115.898 218.338 116.298 217.829 116.693 217.304C152.221 186.586 194.542 170.659 241.631 170.82C241.79 170.823 241.896 170.772 241.992 170.69ZM177.539 165.685C195.699 163.186 215.144 166.471 233.677 169.411C193.662 169.187 152.534 184.514 122.466 210.955C122.766 210.407 123.03 209.852 123.309 209.293C123.425 209.047 123.545 208.817 123.66 208.572C125.68 206.595 127.421 204.058 128.141 201.387C128.272 201.416 128.404 201.392 128.481 201.246C138.415 182.726 156.449 168.594 177.539 165.685ZM191.726 129.026C183.79 133.098 174.786 134.255 166.76 138.093C160.938 140.875 155.899 144.932 151.129 149.236C151.26 148.706 151.396 148.192 151.512 147.667C160.578 132.46 176.208 124.443 192.305 117.469C197.522 115.209 202.828 113.235 206.98 109.193C211.929 104.343 215.808 97.9745 219.834 92.2949C216.204 107.899 206.196 121.6 191.726 129.026ZM159.478 127.212C165.934 117.068 176.665 112.384 187.617 108.626C198.234 104.974 209.134 101.495 217.114 93.8792C213.185 99.5295 209.31 105.634 204.036 109.835C197.027 115.417 187.467 117.812 179.485 121.846C168.734 127.253 158.728 134.314 152.39 144.387C154.026 138.388 156.125 132.472 159.478 127.212ZM158.223 5.8121C158.085 5.31385 157.973 4.7893 157.835 4.29113C157.79 4.14803 157.712 4.06712 157.612 4.02819C157.336 3.31142 157.347 3.29042 158.391 5.00795C160.795 9.00895 163.181 12.8932 165.154 17.1342C169.236 25.9402 171.83 35.3512 172.086 45.1088C172.504 61.1412 166.031 75.9215 154.184 86.3716C163.81 61.2217 165.235 32.2581 158.341 6.2468C158.297 6.1037 158.251 5.96 158.223 5.8121ZM152.398 50.0428C152.737 37.5482 158.107 25.6112 158.624 13.1831C162.922 38.3812 160.966 62.688 152.942 87.3714C152.551 87.6859 152.185 88.0275 151.79 88.3262C151.707 87.95 151.608 87.5789 151.525 87.2026C151.835 87.6304 152.665 87.7729 152.893 87.1598C157.574 74.8621 152.058 62.6433 152.398 50.0428Z" fill="#9F5A8D"/>
</svg>
