<svg width="227" height="282" viewBox="0 0 227 282" fill="none" xmlns="http://www.w3.org/2000/svg">
<path fill-rule="evenodd" clip-rule="evenodd" d="M212.125 27.6268C211.481 27.0949 209.555 25.6117 207.843 24.331C202.668 20.4607 202.474 20.2842 195.975 13.5703C187.176 4.47932 186 3.33693 184.616 2.53638C182.83 1.50567 180.556 0.794418 179.016 0.789037C177.554 0.784992 175.81 1.29393 174.318 2.15991C172.451 3.24426 169.392 6.6721 167.645 9.63792C167.301 10.2216 167.007 10.6973 166.991 10.695C166.974 10.6938 164.637 9.85946 161.798 8.842C149.143 4.30527 144.035 2.80868 140.662 2.65255C135.018 2.39043 127.312 5.17077 124.654 8.4253C123.217 10.1885 122.482 12.5674 122.555 15.2296C122.607 17.112 122.877 18.5194 123.972 22.5771C124.489 24.4881 125.313 27.7379 125.804 29.7999C126.296 31.8617 127.042 34.6785 127.463 36.0584C129.031 41.1997 129.13 41.7241 129.697 47.7849C129.937 50.3452 129.878 51.897 129.398 55.6775C129.046 58.4453 128.417 62.2412 128.288 62.3703C128.243 62.4153 128.016 62.1327 127.785 61.7397C127.005 60.4183 125.531 58.7035 124.523 57.9426C123.023 56.8115 120.857 55.5709 119.572 55.1055C118.918 54.8676 117.1 54.345 115.531 53.9439C109.624 52.4288 108.778 52.0899 103.445 49.0993C97.3636 45.6912 94.5707 44.3629 90.4159 42.9011C87.6964 41.9449 86.239 41.5723 83.6611 41.1735C79.9026 40.5913 75.8853 40.951 73.2793 42.1025C71.6753 42.8108 68.8698 44.5124 67.0519 45.8779C64.426 47.8524 63.2717 49.4049 62.3735 52.1737C61.9175 53.5774 61.8768 54.2877 62.1973 55.2361C62.5662 56.3262 62.988 56.7481 64.0336 57.071C65.2026 57.4311 65.9315 57.4713 68.0544 57.2847C71.704 56.9646 73.9201 57.1711 77.7996 58.1911C80.9636 59.0217 83.7843 60.2047 85.624 61.473C86.4946 62.0749 88.0721 63.9084 89.9215 66.4677C95.2353 73.8209 97.8707 77.1096 101.353 80.7372C104.813 84.345 105.817 85.1308 109.842 87.3895C113.833 89.6306 116.376 90.8263 119.287 91.8308C121.792 92.6957 125.731 94.2785 128.552 95.5538L130.011 96.214L129.988 97.1719C129.963 98.1808 130.297 99.0767 131.075 100.084C131.545 100.695 132.024 102.526 133.011 107.492C133.444 109.678 133.479 110.313 133.364 113.852C133.208 118.621 133.06 120.268 132.659 121.706C132.146 123.537 131.097 126.147 129.481 129.605C128.635 131.416 127.274 134.401 126.459 136.241C124.8 139.977 124.184 141.124 121.749 145.008C120.82 146.489 118.919 149.563 117.523 151.84C114.647 156.531 112.581 159.662 110.315 162.773C108.668 165.029 105.444 169.172 105.333 169.172C105.298 169.172 105.312 168.777 105.365 168.296C105.51 166.975 105.744 163.466 105.791 161.887C105.842 160.244 105.575 157.93 105.066 155.623C104.153 151.471 103.907 149.159 104.28 148.204C104.926 146.552 105.334 145.893 106.635 144.409C107.379 143.56 107.988 142.759 107.987 142.627C107.987 142.265 108.38 141.94 109.697 141.215C110.357 140.852 111.304 140.208 111.807 139.782C119.107 133.588 119.537 133.137 120.985 130.185C122.153 127.807 122.347 127.263 122.716 125.335C123.235 122.62 123.058 118.574 122.308 116.078C121.656 113.907 120.404 111.314 119.295 109.844C117.312 107.208 116.77 106.662 115.77 106.287C114.542 105.827 113.498 105.792 112.376 106.17C111.51 106.464 111.313 106.604 110.25 107.678C109.33 108.607 108.976 109.075 108.616 109.833C108.362 110.365 108.113 110.802 108.063 110.802C108.012 110.801 107.535 110.554 107.004 110.252C105.874 109.61 105.231 109.542 104.097 109.948C102.611 110.479 101.375 111.373 99.9369 112.959C97.6394 115.489 96.6898 117.692 96.532 120.86C96.4011 123.455 96.8098 128.31 97.312 130.167C97.531 130.977 97.931 132.549 98.2002 133.66C98.4698 134.772 98.9805 136.542 99.3361 137.593C99.8984 139.254 99.9422 139.516 99.6744 139.596C99.5048 139.645 99.2705 139.848 99.1545 140.043C98.7622 140.7 98.9812 141.443 100.083 143.196C101.559 145.546 102.303 147.399 102.436 149.069C102.573 150.785 102.885 152.791 103.425 155.431C104.243 159.413 104.357 160.767 104.293 165.693L104.227 170.552L102.789 172.345C101.996 173.33 100.388 175.399 99.2129 176.941C96.1123 181.013 94.6754 182.79 92.0344 185.823C90.7404 187.31 88.5682 189.837 87.207 191.44C83.7139 195.552 81.3359 198.277 81.234 198.277C81.1888 198.277 81.2263 197.3 81.321 196.108C81.5671 192.981 81.4653 190.615 80.9017 186.437C80.4746 183.279 80.1967 180.591 79.764 175.473C79.6869 174.56 79.7314 174.369 80.1194 173.935C80.5922 173.408 81.9108 171.074 82.754 169.274C84.1108 166.377 85.9727 159.651 86.6417 155.232C86.8607 153.778 87.178 151.807 87.3451 150.848C87.5118 149.892 87.7087 148.23 87.7804 147.156C87.8536 146.081 88.0334 144.109 88.1814 142.774C88.4555 140.287 88.4931 136.567 88.2963 131.209C88.175 127.939 88.3437 119.37 88.5714 117.222C88.6466 116.495 89.0026 114.431 89.3609 112.634C90.0814 109.023 90.2122 106.537 89.7352 105.594C89.1217 104.382 87.9979 104.146 86.6202 104.938C85.7776 105.423 85.0856 106.294 83.4401 108.939C79.0652 115.974 78.1229 120.144 77.6018 134.801C77.439 139.415 77.2213 143.539 76.9677 146.835C76.8438 148.441 76.7275 150.891 76.7112 152.281C76.6808 154.632 77.0343 163.41 77.3879 169.116C77.4727 170.477 77.5284 171.959 77.5128 172.409C77.4992 172.859 77.5748 173.496 77.6802 173.825C77.8683 174.399 78.2479 177.49 78.605 181.383C78.7005 182.407 79.0399 185.072 79.3595 187.3C79.8064 190.407 79.9386 192.116 79.9316 194.607C79.9259 196.393 79.8509 198.391 79.764 199.045L79.607 200.236L76.8358 202.867C73.9013 205.652 71.1196 208.097 65.3637 212.948C58.0367 219.124 52.4088 224.117 47.2703 228.995C45.75 230.44 44.4129 231.668 44.3033 231.724C44.1915 231.781 44.316 230.946 44.5798 229.867C45.6376 225.512 45.832 221.256 45.1674 216.919L44.7862 214.425L45.528 214.38C46.1792 214.34 46.3263 214.265 46.7357 213.768C47.4004 212.961 47.592 212.301 48.2298 208.603C48.877 204.852 49.535 198.041 49.5233 195.198C49.5055 190.604 48.578 185.514 46.4715 178.455C44.9704 173.417 44.0279 168.062 43.3778 160.882C42.5458 151.67 42.0626 149.835 40.4528 149.771C39.5266 149.736 38.7507 151.005 37.6524 154.351C36.647 157.418 36.0742 160.375 35.3393 166.301C34.5311 172.807 34.322 176.775 34.5431 181.413C34.8047 186.883 35.3777 190.492 36.7653 195.4C37.0119 196.273 37.7277 198.815 38.3565 201.047C39.6457 205.63 40.1532 207.197 41.378 210.387C42.346 212.905 42.696 214.069 43.0998 216.118C44.1661 221.511 43.9497 226.823 42.4415 232.326L42.0872 233.617L34.4207 241.376C26.7154 249.176 24.7214 251.315 20.1527 256.684C17.3696 259.956 15.8875 261.662 11.1216 267.081C6.92984 271.85 4.84672 274.363 3.43534 276.354C1.86909 278.56 0.459111 280.958 0.58144 281.202C0.660636 281.36 0.767411 281.293 1.05025 280.903C2.03667 279.549 5.24128 276.051 15.1104 265.567C17.1475 263.404 20.1789 260.067 21.8477 258.154C25.9432 253.459 26.2537 253.158 27.443 252.717C29.9384 251.791 33.3502 251.214 36.6036 251.163C38.1246 251.14 38.348 251.178 38.4421 251.484C38.5997 252 38.867 252.218 40.8186 253.431C42.9909 254.78 44.2057 255.75 47.522 258.788C48.9376 260.082 50.6658 261.557 51.3644 262.062C55.2507 264.878 60.0413 267.062 64.2988 267.959C68.5287 268.852 74.1453 268.042 84.6458 265.023C90.9907 263.199 92.9536 262.707 96.9947 261.93C103.429 260.691 105.813 260.16 107.415 259.603C108.285 259.3 109.118 259.021 109.267 258.983C110.619 258.645 110.942 258.394 110.289 258.194C110.012 258.108 109.904 257.95 109.767 257.429C109.61 256.828 109.53 256.726 108.783 256.214C107.625 255.416 105.023 254.566 101.658 253.885C93.5511 252.244 87.5485 251.907 75.7554 252.427C72.1449 252.585 67.0905 252.693 64.5209 252.666C57.6711 252.592 54.1766 252.204 46.426 250.658C40.0684 249.39 37.7922 249.221 33.7454 249.724C32.257 249.91 31.301 250.115 29.6089 250.61L28.4146 250.96L29.5466 249.652C33.0786 245.571 48.7998 230.39 56.6147 223.516C61.8176 218.938 61.1593 219.356 64.6071 218.435C66.2519 217.995 68.2113 217.549 68.9643 217.444C72.6773 216.922 80.0129 217.358 85.5764 218.434L86.6406 218.639L86.4935 219.035C86.1449 219.976 86.7162 220.307 91.4609 221.909C93.042 222.444 95.6951 223.405 97.3547 224.045C108.173 228.225 117.394 231.146 123.799 232.422C128.017 233.262 133.002 233.282 139.82 232.484C148.105 231.516 149.947 231.483 155.818 232.197C161.452 232.882 165.309 232.989 166.861 232.503C167.564 232.282 168.317 231.526 168.442 230.918C168.496 230.654 168.439 230.11 168.315 229.707C168.111 229.042 167.942 228.827 166.499 227.398C163.418 224.34 158.525 221.365 153.1 219.247C145.273 216.191 135.591 214.824 123.007 214.998C116.156 215.095 111.787 215.418 105.019 216.327C94.609 217.727 92.7295 217.741 84.8233 216.475C81.1096 215.879 78.0231 215.597 74.472 215.528C70.7936 215.457 68.586 215.725 65.6162 216.604C64.9055 216.816 64.3285 216.959 64.3292 216.924C64.3321 216.889 66.2957 215.233 68.6914 213.242C78.1673 205.374 81.2135 202.362 89.3566 192.806C90.4095 191.572 92.4282 189.245 93.846 187.635C95.263 186.025 97.0442 183.935 97.8051 182.988L99.1861 181.268L104.093 178.383C106.793 176.796 110.84 174.531 113.088 173.349C115.337 172.167 117.2 171.175 117.23 171.145C117.26 171.115 117.454 171.26 117.662 171.468C117.919 171.726 118.532 171.967 119.568 172.221C120.409 172.426 122.265 172.902 123.69 173.281C125.117 173.66 127.844 174.372 129.751 174.867C131.659 175.362 135.086 176.364 137.366 177.093C139.645 177.823 142.412 178.69 143.512 179.019C144.615 179.349 146.798 180.015 148.367 180.499C152.455 181.759 154.32 182.204 158.777 182.98C167.324 184.469 168.031 184.555 172.27 184.644C173.55 184.671 176.005 184.773 177.729 184.871C181.976 185.112 183.856 184.838 185.41 183.752C186.371 183.081 186.835 182.308 186.898 181.279C186.99 179.792 186.225 178.372 184.298 176.461C183.096 175.267 182.862 175.101 181.336 174.348C178.61 173.003 176.017 172.293 167.203 170.485C157.073 168.408 155.607 168.037 148.142 165.681C139.879 163.071 137.003 162.519 133.752 162.918C129.903 163.392 124.064 165.349 118.576 168.002C115.022 169.721 107.493 173.951 104.74 175.777C102.695 177.133 102.293 177.353 102.538 176.98C102.703 176.729 104.271 174.773 106.022 172.633C107.773 170.493 109.987 167.702 110.943 166.435C113.644 162.848 114.354 162.108 116.666 160.478C119.023 158.819 119.805 158.412 123.095 157.136C129.513 154.648 129.247 154.709 133.349 154.759C136.656 154.801 139.572 154.127 140.41 153.132L140.805 152.66L143.84 153.067C148.558 153.702 154.059 153.47 156.782 152.526C158.71 151.855 161.216 150.232 162.862 148.586C163.661 147.786 164.878 146.004 165.378 144.902C165.873 143.809 165.921 142.853 165.567 141.187C165.153 139.242 163.453 136.018 162.491 135.353C160.928 134.274 158.292 134.535 156.241 135.975L155.369 136.587L155.221 136.018C155.035 135.312 154.107 133.8 153.454 133.143C152.807 132.492 151.17 131.985 150.067 132.097C147.902 132.314 145.763 133.468 143.709 135.522C142.267 136.966 141.97 137.386 137.544 144.294C136.41 146.062 134.736 148.209 134.556 148.125C134.474 148.088 134.153 148.038 133.844 148.013C133.329 147.974 133.218 148.035 132.531 148.753C132.118 149.184 131.538 149.952 131.242 150.458C130.946 150.967 130.374 151.758 129.971 152.219C129.246 153.051 129.212 153.069 126.852 153.93C121.099 156.03 119.419 156.756 117.91 157.791C116.433 158.807 116.408 158.759 117.507 157.02C119.44 153.962 125.914 143.228 126.58 141.978C126.944 141.292 128.11 138.719 129.168 136.256C130.227 133.794 131.61 130.629 132.242 129.221C133.658 126.066 134.841 122.604 135.412 119.946C135.652 118.835 135.991 117.71 136.169 117.446C136.658 116.718 137.722 115.694 138.812 114.901C139.348 114.512 140.396 113.586 141.141 112.846C142.875 111.121 144.286 110.031 145.803 109.242C147 108.622 150.096 107.628 150.935 107.596C151.174 107.586 151.715 107.446 152.136 107.285C152.839 107.016 152.965 107.027 153.655 107.416C156.249 108.88 159.171 111.484 160.332 113.365C160.645 113.874 161.427 115.585 162.069 117.171C164.295 122.671 166.182 125.6 170.614 130.428C172.374 132.346 176.654 137.343 178.965 140.174C180.044 141.498 181.627 143.216 183.412 145.001C185.998 147.588 186.304 147.852 188.002 148.97C190.825 150.831 191.965 151.294 195.425 151.987C196.972 152.298 200.615 153.477 201.833 154.062C202.421 154.345 203.388 154.887 203.979 155.267C205.745 156.4 206.987 156.262 207.963 154.826C208.208 154.464 208.452 154.024 208.505 153.846C208.665 153.317 208.51 152.287 208.186 151.716C207.767 150.976 205.967 148.859 202.965 145.579C200.448 142.828 199.396 141.469 198.603 139.945C198.093 138.965 198.051 137.268 198.467 134.47C198.911 131.476 198.831 130.537 197.882 127.641C196.733 124.135 195.678 122.288 193.298 119.62C192.015 118.182 189.376 116.251 186.7 114.795C181.871 112.164 179.733 111.091 177.064 109.954C174.486 108.856 169.451 106.465 169.209 106.223C169.162 106.176 169.811 106.036 170.652 105.913C171.493 105.792 174.215 105.304 176.7 104.83C182.033 103.813 183.757 103.61 186.542 103.673C189.44 103.738 194.576 104.318 198.038 104.969C205.212 106.317 207.567 106.625 210.826 106.638C213.547 106.649 214.177 106.589 215.25 106.216C216.983 105.612 218.925 104.515 220.132 103.46C221.978 101.85 223.107 99.4498 223.973 95.2939C224.228 94.0706 224.637 92.3573 224.882 91.4859C225.706 88.5495 225.707 88.492 224.854 83.0884C224.291 79.5228 223.754 78.2981 221.195 74.7575C219.924 72.9967 218.969 71.8537 215.717 68.1904C215.43 67.867 215.309 67.9977 217.984 65.7764C220.779 63.4593 223.211 60.8845 224.13 59.276C225.988 56.0158 226.753 51.83 226.099 48.4918C225.748 46.6988 224.48 43.1461 223.538 41.3129C221.637 37.6175 220.11 35.5843 216.255 31.6309C214.629 29.9617 212.769 28.161 212.125 27.6268ZM217.783 35.7578C221.101 39.7363 223.504 44.4682 224.377 48.7374C224.849 51.0538 224.643 53.2799 223.702 55.9713C222.874 58.342 222.309 59.1691 219.845 61.6156C217.583 63.8612 213.74 67.0715 211.582 68.514C210.035 69.5478 202.93 73.0867 198.462 75.048C183.14 81.7717 184.294 81.2318 177.714 84.7554C175.147 86.1303 171.705 88.0364 170.066 88.992C159.64 95.0656 152.994 98.4529 148.774 99.8378C146.692 100.522 145.763 100.517 145.066 99.8158C144.805 99.5523 144.572 99.2426 144.547 99.1276C144.488 98.8512 145.338 95.072 145.855 93.3066C146.384 91.5019 146.59 91.0834 148.588 87.7285C152.618 80.9636 153.511 78.5977 155.544 69.3037C155.944 67.4793 156.723 64.1145 157.275 61.8252C158.549 56.5518 159.089 53.7272 160.72 43.8196C163.787 25.1839 165.428 18.7431 168.739 12.3331C170.474 8.97607 173.098 5.64142 175.144 4.1903C177.142 2.77384 179.321 2.46145 181.58 3.26733C184.149 4.18356 183.625 3.72638 193.649 13.7481C201.584 21.6808 202.812 22.8618 204.078 23.7892C207.661 26.4109 210.022 28.1987 211.156 29.1528C212.933 30.6444 216.41 34.1109 217.783 35.7578ZM165.537 13.7092C165.146 14.553 164.41 16.445 163.902 17.914C162.125 23.057 160.833 29.2094 158.383 44.189C156.665 54.6879 156.265 56.8572 155.215 61.3378C154.84 62.9392 154.094 66.3864 153.556 69.0002C151.496 79.0246 150.927 80.5396 146.13 88.7522C143.96 92.4649 142.696 94.9433 142.35 96.1581L142.135 96.9113L141.67 96.3112C139.48 93.4837 137.349 90.3556 136.153 88.2089C135.685 87.371 134.902 86.0282 134.413 85.2274C132.707 82.4344 130.496 75.731 129.898 71.5454C129.611 69.5405 129.826 65.6633 130.388 62.7316C131.297 57.9856 131.952 52.497 131.907 50.0084C131.866 47.7677 131.35 42.7755 130.965 40.9191C130.763 39.9401 130.157 37.7324 129.618 36.0141C129.078 34.2957 128.25 31.2814 127.776 29.3165C127.303 27.3516 126.499 24.3532 125.99 22.6541C124.414 17.3899 124.084 15.2407 124.508 13.0005C124.916 10.8369 125.845 9.40097 127.661 8.12365C131.69 5.28646 138.353 3.84247 143.141 4.76539C144.98 5.12128 153.706 7.7474 158.79 9.47493C160.972 10.2174 163.585 11.0132 164.597 11.2455C166.106 11.5912 166.421 11.7129 166.344 11.9234C166.293 12.0618 165.93 12.8664 165.537 13.7092ZM215.324 69.4574C215.475 69.7294 216.318 70.8221 217.199 71.8865C218.079 72.9516 219 74.1169 219.245 74.4769C219.49 74.8361 220.069 75.6192 220.527 76.217C221.589 77.5995 222.499 79.17 222.845 80.2194C222.994 80.6697 223.224 81.8854 223.356 82.9184C223.489 83.9522 223.669 85.2522 223.757 85.8082C224.011 87.3917 223.867 89.0107 223.317 90.7342C223.04 91.6087 222.638 93.1076 222.423 94.0669C221.738 97.1244 221.517 97.8821 220.926 99.1627C220.083 100.999 219.159 102.003 217.376 103.031C215.017 104.393 214.125 104.617 211.16 104.603C208.52 104.589 204.807 104.056 197.663 102.662C191.825 101.523 185.175 101.124 181.292 101.678C180.374 101.808 177.897 102.263 175.789 102.688C173.68 103.111 171.153 103.576 170.173 103.719C165.225 104.44 158.899 104.666 156.577 104.202C155.8 104.047 154.848 103.879 154.463 103.828C153.668 103.725 149.012 102.079 149.013 101.902C149.011 101.838 149.532 101.613 150.168 101.402C152.259 100.71 156.131 98.9465 159.404 97.1951C163.208 95.1608 168.992 91.9316 171.369 90.5166C172.297 89.9628 175.588 88.1476 178.679 86.4842C184.234 83.4922 187.825 81.7873 197.328 77.6315C204.809 74.3596 212.045 70.6053 214.175 68.8898C214.96 68.2575 215.013 68.2385 215.033 68.5908C215.041 68.797 215.174 69.186 215.324 69.4574ZM193.109 122.607C194.396 124.335 195.343 126.207 196.038 128.4C196.687 130.444 196.782 131.832 196.435 134.226C195.655 139.618 196.114 140.861 200.707 145.8C203.156 148.433 205.948 151.607 206.609 152.508C206.926 152.942 206.904 153.233 206.505 153.885C206.204 154.377 205.779 154.365 205.066 153.843C203.187 152.467 198.767 150.758 195.323 150.075C194.353 149.882 193.132 149.58 192.609 149.403C191.627 149.07 189.794 147.922 187.795 146.385C186.404 145.318 182.816 141.563 180.665 138.926C179.156 137.074 175.02 132.425 170.605 127.611C167.033 123.718 165.502 121.303 163.542 116.463C162.046 112.771 161.603 112.051 159.532 109.956C157.753 108.156 156.845 107.486 154.766 106.447C154.192 106.161 153.734 105.914 153.749 105.899C153.763 105.885 154.613 106.043 155.639 106.251C157.89 106.708 159.746 106.8 162.957 106.619L165.377 106.484L168.702 108.194C170.53 109.134 173.44 110.524 175.17 111.283C177.918 112.49 181.752 114.422 185.924 116.702C187.621 117.631 190.339 119.534 191.295 120.463C191.728 120.884 192.545 121.85 193.109 122.607ZM127.117 63.5271C127.421 64.1513 127.634 64.7821 127.592 64.9296C127.552 65.0783 127.564 65.2451 127.622 65.3028C127.679 65.3605 127.714 66.7197 127.698 68.3257C127.675 70.7397 127.764 71.7002 128.209 73.8723C129.059 78.0273 131.034 83.8429 132.29 85.8917C132.66 86.4948 133.598 88.0827 134.377 89.4187C135.156 90.7547 135.991 92.11 136.232 92.4275C136.474 92.7462 137.005 93.4863 137.414 94.0727C138.552 95.7054 140.053 97.7248 140.36 98.0367C140.512 98.1901 139.472 97.8101 138.048 97.1937C136.624 96.5755 134.59 95.7592 133.527 95.381C132.463 95.0017 130.636 94.2757 129.463 93.7677C125.283 91.9554 123.024 91.0524 119.788 89.9049C114.23 87.9349 107.468 84.3306 105.012 82.0273C102.013 79.217 97.7118 74.1336 93.7628 68.7337C92.3966 66.8653 90.8769 64.7884 90.3846 64.118C89.8917 63.4483 88.951 62.3012 88.2959 61.5697C87.298 60.4572 86.9249 60.1336 86.0175 59.6024C83.2027 57.9543 80.1197 56.864 75.594 55.9134C73.5544 55.4874 69.7994 55.3881 67.328 55.6971C65.7729 55.8927 64.3476 55.712 63.8997 55.2641C63.0594 54.4238 64.3428 50.7857 66.1076 49.0051C67.5963 47.5028 71.5522 44.8995 73.9185 43.8633C76.816 42.5944 80.7206 42.4515 85.4693 43.437C89.7661 44.3291 94.8599 46.4894 101.355 50.1705C107.553 53.6837 108.92 54.2509 114.601 55.6695C119.058 56.7817 119.912 57.0879 121.982 58.3022C123.478 59.1798 123.716 59.3733 125.085 60.823C126.329 62.1392 126.658 62.5776 127.117 63.5271ZM162.671 138.442C163.531 139.963 164.065 141.635 164.067 142.824C164.075 145.445 159.829 149.529 155.816 150.758C153.461 151.481 147.545 151.626 142.84 151.077C141.503 150.921 139.974 150.835 139.442 150.887C138.912 150.938 138.476 150.949 138.476 150.91C138.476 150.872 139.104 150.459 139.872 149.992C141.398 149.066 144.84 146.618 147.947 144.253C152.69 140.642 156.504 137.782 157.191 137.323C158.459 136.478 159.914 136.166 161.041 136.495C161.567 136.648 161.846 136.981 162.671 138.442ZM153.693 135.527C153.933 135.955 154.112 136.546 154.106 136.884C154.091 137.6 154.516 137.228 148.518 141.792C141.2 147.36 139.737 148.384 136.786 149.985C136.25 150.277 135.736 150.499 135.647 150.478C135.558 150.456 135.524 150.194 135.574 149.895C135.637 149.508 135.959 148.982 136.699 148.057C137.67 146.847 139.551 144.095 142.494 139.582C144.353 136.73 144.992 136.017 146.674 134.911C148.913 133.436 150.444 133.059 151.939 133.609C152.646 133.869 152.941 134.191 153.693 135.527ZM117.373 110.947C119.197 113.468 120.507 116.775 120.843 119.723C121.281 123.547 120.852 126.192 119.179 129.972C118.5 131.506 118.464 131.552 116.921 133.105C114.537 135.502 110.527 138.795 108.658 139.891C107.801 140.393 106.559 141.223 105.9 141.733C104.895 142.511 104.727 142.598 104.866 142.271C104.958 142.058 105.37 140.905 105.785 139.713C106.768 136.884 106.997 134.694 107.041 127.719C107.092 120.038 107.426 117.974 109.39 113.236C110.617 110.274 111.242 109.252 112.31 108.443C113.018 107.91 113.734 107.809 114.682 108.11C115.523 108.378 115.472 108.326 117.373 110.947ZM184.699 179.942C185.5 181.918 184.043 182.916 180.36 182.916C177.105 182.916 169.192 182.58 167.253 182.359C165.064 182.11 157.274 180.747 154.921 180.201C153.996 179.986 152.071 179.451 150.644 179.012C142.57 176.528 139.954 175.713 137.021 174.766C135.234 174.189 131.154 173.054 127.953 172.243C122.524 170.866 120.874 170.413 120.723 170.263C120.37 169.91 123.914 168.064 126.978 167.004C132.863 164.972 135.876 164.562 139.446 165.309C140.347 165.497 144.814 166.73 149.374 168.047C156.199 170.019 158.855 170.693 164.383 171.852C168.077 172.626 171.116 173.297 171.136 173.344C171.154 173.391 171.567 173.487 172.052 173.558C175.479 174.062 179.362 175.294 181.49 176.554C182.499 177.151 184.368 179.123 184.699 179.942ZM106.92 113.937C105.509 117.355 105.162 119.974 105.127 127.488C105.096 134.009 105 135.899 104.6 137.791C104.239 139.498 103.317 141.906 103.049 141.842C102.495 141.708 100.956 137.425 99.9734 133.278C99.6919 132.091 99.2888 130.501 99.0767 129.748C98.3266 127.091 97.9089 121.499 98.2868 119.187C98.6135 117.189 100.314 114.334 101.995 112.963C102.967 112.17 104.488 111.364 105.164 111.285C105.68 111.226 107.197 111.788 107.455 112.136C107.528 112.237 107.288 113.047 106.92 113.937ZM88.6795 108.287C88.6294 109.964 88.2572 111.727 87.3529 114.579C86.673 116.725 86.5936 117.195 86.4896 119.744C86.2933 124.542 86.3348 131.205 86.5836 134.498C86.8304 137.78 86.8046 139.192 86.421 143.148C86.2945 144.444 86.1424 146.335 86.082 147.352C86.0209 148.37 85.7838 150.207 85.5576 151.433C85.3287 152.659 85.0218 154.502 84.8733 155.526C84.1811 160.301 81.716 168.346 79.9347 171.647C79.5476 172.365 79.5146 172.396 79.4324 172.118C79.3845 171.956 79.3316 170.764 79.3176 169.473C79.3017 168.182 79.2087 166.137 79.1112 164.93C78.8741 162 78.5762 154.191 78.6292 152.263C78.652 151.414 78.8174 148.758 78.9963 146.36C79.1744 143.963 79.4074 139.876 79.5117 137.279C80.1202 122.323 80.6258 118.7 82.7767 113.862C83.5789 112.058 86.2771 107.548 86.9665 106.858C87.7669 106.058 87.9225 106.027 88.3525 106.567C88.6435 106.934 88.7117 107.287 88.6795 108.287ZM164.188 227.791C162.785 226.979 159.441 226.134 154.113 225.249C150.982 224.726 150.239 224.65 140.711 223.862C131.38 223.09 130.495 222.974 123.214 221.535C118.832 220.668 111.495 219.47 104.9 218.545C104.072 218.428 110.464 217.69 114.771 217.403C127.281 216.572 137.853 217.152 146.533 219.147C148.755 219.658 153.478 221.234 155.721 222.214C157.59 223.032 160.51 224.777 162.645 226.355C164.683 227.863 165.294 228.43 164.188 227.791ZM165.227 230.995C163.912 231.12 160.185 230.896 156.152 230.45C149.888 229.756 147.262 229.808 139.248 230.79C135.796 231.212 133.822 231.338 130.794 231.328C125.731 231.309 123.066 230.843 116.348 228.804C112.806 227.728 103.472 224.375 98.1367 222.262C97.2507 221.91 95.3359 221.23 93.8799 220.75L91.2332 219.875L95.1952 219.872C99.9505 219.868 102.21 220.048 108.604 220.939C115.529 221.904 118.877 222.452 124.16 223.479C130.055 224.624 131.856 224.855 140.304 225.544C151.357 226.446 152.846 226.63 158.173 227.755C161.449 228.447 162.539 228.826 164.42 229.929C165.282 230.436 166.012 230.863 166.043 230.88C166.073 230.898 165.705 230.949 165.227 230.995ZM41.2355 160.199C42.0884 168.459 42.8704 173.212 43.9938 176.975C45.854 183.203 46.2861 184.787 46.7932 187.204C47.8817 192.4 48.0581 195.659 47.5791 201.759C47.1352 207.415 46.4147 211.599 45.7281 212.5L45.3314 213.019L44.8845 212.572C44.3393 212.026 44.304 211.8 44.0741 207.302C43.9784 205.435 43.7806 202.694 43.6336 201.215C43.0561 195.375 42.9342 193.963 42.6235 189.684C42.4473 187.241 42.1561 184.171 41.9777 182.861C41.6515 180.455 41.3986 176.2 41.2826 171.104C41.2484 169.575 41.1342 167.344 41.0285 166.142C40.9239 164.941 40.8139 163.016 40.7824 161.864C40.7514 160.714 40.6811 159.183 40.6233 158.465C40.5309 157.313 40.6069 155.733 40.7448 155.871C40.772 155.898 40.9925 157.847 41.2355 160.199ZM38.8156 161.987C38.873 163.38 39.0036 165.505 39.1046 166.709C39.2082 167.913 39.3255 170.145 39.3668 171.672C39.5186 177.412 39.7462 181.188 40.0633 183.28C40.4046 185.534 40.5752 187.417 40.9348 192.927C41.0538 194.737 41.2966 197.548 41.476 199.172C41.9278 203.267 42.2177 206.818 42.0976 206.818C41.8502 206.816 38.3218 193.803 37.6803 190.527C36.5559 184.779 36.356 177.336 37.1343 170.111C37.6646 165.181 38.4979 159.24 38.6393 159.382C38.68 159.422 38.76 160.595 38.8156 161.987ZM107.518 257.539C107.497 257.56 106.285 257.435 104.824 257.259C101.149 256.818 96.3661 256.46 94.1267 256.458C91.8979 256.455 89.72 256.67 84.5461 257.399C80.1529 258.019 77.8916 258.213 74.6756 258.244C70.0596 258.29 62.8061 257.164 56.6748 255.452C53.9779 254.698 49.5762 253.278 49.5762 253.159C49.5755 253.116 50.8306 253.268 52.3678 253.497C53.9022 253.727 56.3198 254.026 57.7383 254.162C61.2342 254.497 69.4784 254.516 76.5233 254.205C86.4574 253.767 92.3773 254.031 99.191 255.214C103.454 255.954 107.869 257.187 107.518 257.539ZM102.419 259.043C102.251 259.093 101.167 259.297 100.013 259.5C93.3086 260.673 88.7647 261.749 82.7572 263.584C76.0743 265.625 70.3983 266.841 67.584 266.829C63.8102 266.817 59.5937 265.492 55.3412 262.98C52.8819 261.529 51.2909 260.304 49.3478 258.368C48.4123 257.437 46.7117 255.881 45.569 254.908C44.4263 253.936 43.4901 253.114 43.4901 253.08C43.4887 253.048 44.811 253.507 46.426 254.103C55.4084 257.414 61.6521 258.95 69.8015 259.853C74.5971 260.383 78.4622 260.197 87.0578 259.012C91.6709 258.377 94.7617 258.28 99.3933 258.623C101.175 258.756 102.653 258.884 102.678 258.908C102.704 258.934 102.587 258.995 102.419 259.043Z" fill="#5D7C78"/>
</svg>
